<?xml version="1.0" encoding="UTF-8"?><svg id="Layer_2" xmlns="http://www.w3.org/2000/svg" xmlns:xlink="http://www.w3.org/1999/xlink" viewBox="0 0 495.32 171.3"><defs><linearGradient id="linear-gradient" x1="165.14" y1="43.89" x2="173.31" y2="43.89" gradientUnits="userSpaceOnUse"><stop offset="0" stop-color="#edc983"/><stop offset="0" stop-color="#f8d78f"/><stop offset=".23" stop-color="#b99549"/><stop offset=".41" stop-color="#8f5b24"/><stop offset=".59" stop-color="#a9732a"/><stop offset=".77" stop-color="#b18b3c"/><stop offset="1" stop-color="#dfb96b"/></linearGradient><linearGradient id="linear-gradient-2" x1="165.14" y1="4.09" x2="330.08" y2="4.09" gradientTransform="translate(243.53 251.7) rotate(-90)" xlink:href="#linear-gradient"/><linearGradient id="linear-gradient-3" x1="322" y1="43.89" x2="330.18" y2="43.89" xlink:href="#linear-gradient"/><linearGradient id="linear-gradient-4" x1="177.91" y1="46.45" x2="178.25" y2="46.45" xlink:href="#linear-gradient"/><linearGradient id="linear-gradient-5" x1="188.74" y1="46.45" x2="189.08" y2="46.45" xlink:href="#linear-gradient"/><linearGradient id="linear-gradient-6" x1="198.64" y1="46.45" x2="198.98" y2="46.45" xlink:href="#linear-gradient"/><linearGradient id="linear-gradient-7" x1="209.88" y1="46.45" x2="210.22" y2="46.45" xlink:href="#linear-gradient"/><linearGradient id="linear-gradient-8" x1="219.58" y1="46.45" x2="219.92" y2="46.45" xlink:href="#linear-gradient"/><linearGradient id="linear-gradient-9" x1="230.51" y1="46.45" x2="230.85" y2="46.45" xlink:href="#linear-gradient"/><linearGradient id="linear-gradient-10" x1="240.51" y1="46.45" x2="240.85" y2="46.45" xlink:href="#linear-gradient"/><linearGradient id="linear-gradient-11" x1="251.75" y1="46.45" x2="252.09" y2="46.45" xlink:href="#linear-gradient"/><linearGradient id="linear-gradient-12" x1="261.55" y1="46.45" x2="261.89" y2="46.45" xlink:href="#linear-gradient"/><linearGradient id="linear-gradient-13" x1="272.48" y1="46.45" x2="272.82" y2="46.45" xlink:href="#linear-gradient"/><linearGradient id="linear-gradient-14" x1="282.69" y1="46.45" x2="283.03" y2="46.45" xlink:href="#linear-gradient"/><linearGradient id="linear-gradient-15" x1="293.42" y1="46.45" x2="293.76" y2="46.45" xlink:href="#linear-gradient"/><linearGradient id="linear-gradient-16" x1="303.53" y1="46.45" x2="303.87" y2="46.45" xlink:href="#linear-gradient"/><linearGradient id="linear-gradient-17" x1="314.56" y1="46.45" x2="314.9" y2="46.45" xlink:href="#linear-gradient"/><linearGradient id="linear-gradient-18" x1="170.51" y1="13.24" x2="325.51" y2="13.24" xlink:href="#linear-gradient"/><linearGradient id="linear-gradient-19" x1="169.32" y1="22.43" x2="324.32" y2="22.43" xlink:href="#linear-gradient"/><linearGradient id="linear-gradient-20" x1="168.13" y1="31.11" x2="323.13" y2="31.11" xlink:href="#linear-gradient"/><linearGradient id="linear-gradient-21" x1="167.62" y1="39.62" x2="322.62" y2="39.62" xlink:href="#linear-gradient"/><linearGradient id="linear-gradient-22" x1="167.45" y1="49.32" x2="322.45" y2="49.32" xlink:href="#linear-gradient"/><linearGradient id="linear-gradient-23" x1="167.45" y1="58.51" x2="322.45" y2="58.51" xlink:href="#linear-gradient"/><linearGradient id="linear-gradient-24" x1="167.11" y1="76.55" x2="322.11" y2="76.55" xlink:href="#linear-gradient"/><linearGradient id="linear-gradient-25" x1="167.45" y1="67.19" x2="322.45" y2="67.19" xlink:href="#linear-gradient"/><linearGradient id="linear-gradient-26" x1="231.22" y1="49.56" x2="306.08" y2="49.56" xlink:href="#linear-gradient"/><linearGradient id="linear-gradient-27" x1="305.91" y1="17" x2="320.72" y2="17" xlink:href="#linear-gradient"/><linearGradient id="linear-gradient-28" x1="276.38" y1="23.94" x2="290.42" y2="23.94" xlink:href="#linear-gradient"/><linearGradient id="linear-gradient-29" x1="17.86" y1="132.63" x2="477.46" y2="132.63" xlink:href="#linear-gradient"/><linearGradient id="linear-gradient-30" x1="17.86" y1="132.63" x2="477.46" y2="132.63" xlink:href="#linear-gradient"/><linearGradient id="linear-gradient-31" x1="17.86" y1="132.63" x2="477.46" y2="132.63" xlink:href="#linear-gradient"/><linearGradient id="linear-gradient-32" x1="17.86" y1="132.63" x2="477.46" y2="132.63" xlink:href="#linear-gradient"/><linearGradient id="linear-gradient-33" x1="17.86" y1="132.63" x2="477.46" y2="132.63" xlink:href="#linear-gradient"/><linearGradient id="linear-gradient-34" x1="17.86" y1="132.63" x2="477.46" y2="132.63" xlink:href="#linear-gradient"/><linearGradient id="linear-gradient-35" x1="17.86" y1="132.63" x2="477.46" y2="132.63" xlink:href="#linear-gradient"/><linearGradient id="linear-gradient-36" x1="17.86" y1="132.63" x2="477.46" y2="132.63" xlink:href="#linear-gradient"/><linearGradient id="linear-gradient-37" x1="17.86" y1="132.63" x2="477.46" y2="132.63" xlink:href="#linear-gradient"/><linearGradient id="linear-gradient-38" x1="17.86" y1="132.63" x2="477.46" y2="132.63" xlink:href="#linear-gradient"/><linearGradient id="linear-gradient-39" x1="17.86" y1="132.63" x2="477.46" y2="132.63" xlink:href="#linear-gradient"/><linearGradient id="linear-gradient-40" x1="17.86" y1="132.63" x2="477.46" y2="132.63" xlink:href="#linear-gradient"/></defs><g id="Layer_1-2"><g><rect x="165.14" y=".23" width="8.17" height="87.32" fill="url(#linear-gradient)"/><rect x="243.53" y="-78.38" width="8.17" height="164.94" transform="translate(251.7 -243.53) rotate(90)" fill="url(#linear-gradient-2)"/><rect x="322" y=".23" width="8.17" height="87.32" fill="url(#linear-gradient-3)"/><line x1="177.91" y1="7.55" x2="178.25" y2="85.34" fill="url(#linear-gradient-4)"/><line x1="188.74" y1="7.55" x2="189.08" y2="85.34" fill="url(#linear-gradient-5)"/><line x1="198.64" y1="7.55" x2="198.98" y2="85.34" fill="url(#linear-gradient-6)"/><line x1="209.88" y1="7.55" x2="210.22" y2="85.34" fill="url(#linear-gradient-7)"/><line x1="219.58" y1="7.55" x2="219.92" y2="85.34" fill="url(#linear-gradient-8)"/><line x1="230.51" y1="7.55" x2="230.85" y2="85.34" fill="url(#linear-gradient-9)"/><line x1="240.51" y1="7.55" x2="240.85" y2="85.34" fill="url(#linear-gradient-10)"/><line x1="251.75" y1="7.55" x2="252.09" y2="85.34" fill="url(#linear-gradient-11)"/><line x1="261.55" y1="7.55" x2="261.89" y2="85.34" fill="url(#linear-gradient-12)"/><line x1="272.48" y1="7.55" x2="272.82" y2="85.34" fill="url(#linear-gradient-13)"/><line x1="282.69" y1="7.55" x2="283.03" y2="85.34" fill="url(#linear-gradient-14)"/><line x1="293.42" y1="7.55" x2="293.76" y2="85.34" fill="url(#linear-gradient-15)"/><line x1="303.53" y1="7.55" x2="303.87" y2="85.34" fill="url(#linear-gradient-16)"/><line x1="314.56" y1="7.55" x2="314.9" y2="85.34" fill="url(#linear-gradient-17)"/><line x1="325.51" y1="13.24" x2="170.51" y2="13.24" fill="url(#linear-gradient-18)"/><line x1="324.32" y1="22.43" x2="169.32" y2="22.43" fill="url(#linear-gradient-19)"/><line x1="323.13" y1="31.11" x2="168.13" y2="31.11" fill="url(#linear-gradient-20)"/><line x1="322.62" y1="39.62" x2="167.62" y2="39.62" fill="url(#linear-gradient-21)"/><line x1="322.45" y1="49.32" x2="167.45" y2="49.32" fill="url(#linear-gradient-22)"/><line x1="322.45" y1="58.51" x2="167.45" y2="58.51" fill="url(#linear-gradient-23)"/><line x1="322.11" y1="76.55" x2="167.11" y2="76.55" fill="url(#linear-gradient-24)"/><line x1="322.45" y1="67.19" x2="167.45" y2="67.19" fill="url(#linear-gradient-25)"/><polygon points="284.12 33.43 303.22 25.36 306.08 29.55 286.68 38.23 259 52.32 237.96 73.77 232.75 68.05 249.6 50.99 237.25 60.29 231.22 55.18 242.56 45.07 264.92 33.73 245.21 33.63 245.31 27.81 272.58 29.03 284.12 33.43" fill="url(#linear-gradient-26)"/><circle cx="313.31" cy="17" r="7.4" fill="url(#linear-gradient-27)"/><circle cx="283.4" cy="23.94" r="7.02" fill="url(#linear-gradient-28)"/></g><g><text transform="translate(16.86 150.13)" font-family="MADESunflower, &apos;MADE Sunflower&apos;" font-size="50"><tspan x="0" y="0" letter-spacing="-.04em">BA</tspan><tspan x="69.5" y="0">CK OF THE N</tspan><tspan x="394" y="0" letter-spacing="-.02em">E</tspan><tspan x="426.1" y="0">T</tspan></text><g><path d="M51.76,140.28c0,6.75-6.7,9.85-17.4,9.85H17.86v-1.35c3.85,0,4.7-2.6,4.7-5.75v-20.75c0-3.15-.85-5.75-4.7-5.75v-1.4h14.7c10.7,0,16.45,2.55,16.45,8.65,0,3.8-2.55,6.2-6.6,7.5,6,1.3,9.35,4.25,9.35,9Zm-20.7-23.15v13.35h2.1c5.15,0,7.4-2.6,7.4-6.7,0-3.5-1.6-6.65-6.8-6.65h-2.7Zm11.65,23.15c0-4.55-2.7-7.85-8.55-7.85h-3.1v15.75h3.1c5.85,0,8.55-3.3,8.55-7.9Z" fill="url(#linear-gradient-29)"/><path d="M70.61,150.13v-1.4c3.8,0,4.15-1.8,2.6-5.75l-1.25-2.8h-12.15s-.5,1.25-1.1,2.8c-1.45,4.1,.05,5.75,3.85,5.75v1.4h-12.3v-1.4c3.8,0,5.1-2.7,6.3-5.75l10.95-27.85h2.35l12.1,27.85c1.5,3.2,2.1,5.75,5.9,5.75v1.4h-17.25Zm.5-11.95l-5.55-12.6-4.95,12.6h10.5Z" fill="url(#linear-gradient-30)"/><path d="M118.71,139.13l-.8,11.45h-1.05c-.75-2.9-5.4,0-11.1,0-11.5,0-19.4-7.7-19.4-17.95s7.2-17.95,19-17.95c5.7,0,10.35,2.9,11.1,0h1.05l.8,11.25h-1.4c-1.3-6.1-4.6-9.8-11.55-9.35-5.95,.35-9.85,5.75-9.85,16.05s4.3,15.85,10.25,16.1c6.95,.3,10.25-3.45,11.55-9.6h1.4Z" fill="url(#linear-gradient-31)"/><path d="M162.41,148.78v1.35h-18.85v-1.35c3.8,0,3.6-2.45,2.05-5l-7.2-11.7-4.55,4.25v6.7c0,3.15,.9,5.75,4.7,5.75v1.35h-17.85v-1.35c3.8,0,4.65-2.6,4.65-5.75v-20.75c0-3.15-.85-5.75-4.65-5.75v-1.4h17.85v1.4c-3.8,0-4.7,2.6-4.7,5.75v11.1l12.45-11.35c2.85-2.6,2.95-5.5-.9-5.5v-1.4h13.35v1.4c-3.8,0-7.9,4.05-9.8,5.75-1.9,1.65-4.4,4.05-4.4,4.05l10.6,17.2c1.7,2.75,3.7,5.25,7.25,5.25Z" fill="url(#linear-gradient-32)"/><path d="M209.66,132.63c0,10.25-7.6,17.95-18.4,17.95s-18.45-7.7-18.45-17.95,7.65-17.95,18.45-17.95,18.4,7.75,18.4,17.95Zm-9,0c0-9.7-3.7-16.05-9.4-16.05s-9.45,6.35-9.45,16.05,3.75,16.1,9.45,16.1,9.4-6.35,9.4-16.1Z" fill="url(#linear-gradient-33)"/><path d="M240.66,125.93h-1.6c-1.55-5-4-8.8-8.3-8.8h-6.95v14.5h.85c4.3,0,7.1,0,7.5-6.25h1.4v14.5h-1.4c-.4-6.25-3.2-6.25-7.5-6.25h-.85v9.4c0,3.8,1.85,5.75,5.7,5.75v1.35h-18.85v-1.35c3.8,0,4.7-2.6,4.7-5.75v-20.75c0-3.15-.9-5.75-4.7-5.75v-1.4h29.2l.8,10.8Z" fill="url(#linear-gradient-34)"/><path d="M285.56,125.93h-1.6c-1.6-5-4-8.8-8.3-8.8h-2.6v25.9c0,3.15,.85,5.75,4.65,5.75v1.35h-17.85v-1.35c3.8,0,4.7-2.6,4.7-5.75v-25.9h-2.6c-4.3,0-6.75,3.8-8.3,8.8h-1.6l.8-10.8h31.9l.8,10.8Z" fill="url(#linear-gradient-35)"/><path d="M323.26,122.28v20.75c0,3.15,.9,5.75,4.7,5.75v1.35h-17.85v-1.35c3.8,0,4.7-2.6,4.7-5.75v-9.4h-14.1v9.4c0,3.15,.9,5.75,4.7,5.75v1.35h-17.85v-1.35c3.8,0,4.7-2.6,4.7-5.75v-20.75c0-3.15-.9-5.75-4.7-5.75v-1.4h17.85v1.4c-3.8,0-4.7,2.6-4.7,5.75v9.35h14.1v-9.35c0-3.15-.9-5.75-4.7-5.75v-1.4h17.85v1.4c-3.8,0-4.7,2.6-4.7,5.75Z" fill="url(#linear-gradient-36)"/><path d="M361.56,139.33l-.8,10.8h-30.8v-1.35c3.8,0,4.7-2.6,4.7-5.75v-20.75c0-3.15-.9-5.75-4.7-5.75v-1.4h29l.8,10.8h-1.55c-1.6-5-4.05-8.8-8.35-8.8h-6.75v14.5h.65c4.3,0,7.1,0,7.55-6.25h1.35v14.5h-1.35c-.45-6.25-3.25-6.25-7.55-6.25h-.65v14.55h8.55c4.3,0,6.7-3.8,8.3-8.85h1.6Z" fill="url(#linear-gradient-37)"/><path d="M409.86,115.13v1.4c-3.85,0-4.45,1.45-4.45,5.75v27.85h-3.05l-23-29.05v21.95c0,4.25,1.2,5.75,5,5.75v1.35h-11.4v-1.35c3.8,0,4.4-1.5,4.4-5.75v-20.75c0-3.15-.6-5.75-4.4-5.75v-1.4h13.3l17.2,21.4v-14.25c0-4.3-1.2-5.75-5-5.75v-1.4h11.4Z" fill="url(#linear-gradient-38)"/><path d="M443.46,139.33l-.8,10.8h-30.8v-1.35c3.8,0,4.7-2.6,4.7-5.75v-20.75c0-3.15-.9-5.75-4.7-5.75v-1.4h29l.8,10.8h-1.55c-1.6-5-4.05-8.8-8.35-8.8h-6.75v14.5h.65c4.3,0,7.1,0,7.55-6.25h1.35v14.5h-1.35c-.45-6.25-3.25-6.25-7.55-6.25h-.65v14.55h8.55c4.3,0,6.7-3.8,8.3-8.85h1.6Z" fill="url(#linear-gradient-39)"/><path d="M477.46,125.93h-1.6c-1.6-5-4-8.8-8.3-8.8h-2.6v25.9c0,3.15,.85,5.75,4.65,5.75v1.35h-17.85v-1.35c3.8,0,4.7-2.6,4.7-5.75v-25.9h-2.6c-4.3,0-6.75,3.8-8.3,8.8h-1.6l.8-10.8h31.9l.8,10.8Z" fill="url(#linear-gradient-40)"/></g></g></g></svg>